<svg width="88" height="29" viewBox="0 0 88 29" fill="none" xmlns="http://www.w3.org/2000/svg">
<g clip-path="url(#clip0_7225_45439)">
<path d="M19.0442 2.451H19.4231C20.244 2.67234 20.6597 3.09344 20.6597 3.71969V4.1084C20.4439 4.95059 20.0335 5.37709 19.4231 5.37709H19.0442C18.2233 5.15574 17.8076 4.73464 17.8076 4.1084V3.71969C18.0234 2.87749 18.4338 2.451 19.0442 2.451ZM19.3284 6.53239C20.1177 6.53239 20.5808 7.03447 20.7071 8.04405V20.0831C20.6018 21.0926 20.1124 21.5947 19.2336 21.5947C18.4443 21.5947 17.9813 21.0926 17.855 20.0831V8.04405C17.9602 7.03447 18.4496 6.53239 19.3284 6.53239ZM30.5315 6.37584C30.3105 6.37584 30.0105 6.40823 29.6264 6.47302C28.0373 6.85631 26.7533 7.57972 25.7798 8.64331C24.3222 10.3925 23.596 12.201 23.596 14.0798V20.1371C23.7223 21.1142 24.1801 21.6001 24.9747 21.6001C25.8534 21.6001 26.3428 21.1142 26.4481 20.1371V15.262C26.4481 13.745 26.6533 12.6275 27.0637 11.9095C28.0688 10.1118 29.3686 9.21554 30.9577 9.21554C32.2312 9.21554 33.3731 9.84178 34.3782 11.1051C35.1043 11.9743 35.4727 13.4265 35.4727 15.4564V20.0885C35.599 21.0657 36.0568 21.5515 36.8513 21.5515C37.7302 21.5515 38.2195 21.0657 38.3248 20.0885V14.1284C38.3248 12.0174 37.467 10.0632 35.7568 8.26538C34.2624 7.00749 32.8048 6.37584 31.384 6.37584H30.5262M46.8337 6.4838H47.6914C49.4806 6.4838 51.1592 7.27741 52.7273 8.87C53.7797 10.1225 54.3952 11.3912 54.5797 12.6707C54.6741 13.1512 54.7216 13.961 54.7216 15.1055V20.0777C54.6165 21.0873 54.1269 21.5893 53.2483 21.5893C52.6536 21.5893 52.2116 21.2492 51.9169 20.5636C51.8538 20.4178 51.8222 20.2558 51.8222 20.0777H51.7749C50.3962 21.0873 49.0333 21.5893 47.6914 21.5893H46.9284C45.0288 21.5893 43.2396 20.6769 41.561 18.8576C40.4823 17.3082 39.9455 15.8451 39.9455 14.4685V13.5885C39.9455 11.8825 40.6927 10.1927 42.1767 8.51911C43.7764 7.15326 45.3287 6.47302 46.8337 6.47302M42.7976 14.0258C42.7976 15.4294 43.3975 16.6495 44.6025 17.6807C45.4129 18.2961 46.2496 18.6092 47.1231 18.6092H47.502C49.1017 18.6092 50.3856 17.7455 51.3486 16.0233C51.6328 15.4294 51.7749 14.7978 51.7749 14.1229V13.9286C51.7749 12.2388 50.9645 10.9053 49.349 9.93359C48.6123 9.57728 47.9335 9.39912 47.3073 9.39912C45.7708 9.39912 44.4868 10.1441 43.4606 11.6396C43.0186 12.5033 42.7976 13.2969 42.7976 14.0258ZM57.9685 0C57.0896 0 56.6005 0.502077 56.4949 1.51163V6.53239C56.4949 6.95349 56.4795 7.27741 56.4474 7.50958C56.4795 7.73632 56.4949 8.06025 56.4949 8.48671V12.7787C56.4949 13.7073 56.5264 14.5495 56.5899 15.316C56.8053 16.6549 57.4368 17.956 58.4896 19.2139C60.0576 20.8065 61.736 21.6001 63.5253 21.6001H63.904C64.888 21.4706 65.3776 21.0009 65.3776 20.1856C65.3776 19.4946 65.0459 19.0087 64.3776 18.7226C63.2992 18.6254 62.5568 18.4797 62.1467 18.2853C60.2784 17.3999 59.3419 15.7426 59.3419 13.3131V8.9726H61.6677C62.6517 8.84303 63.1413 8.37334 63.1413 7.55817C63.1413 6.65659 62.6517 6.15451 61.6677 6.0465H59.3419V1.51163C59.2155 0.502077 58.7579 0 57.9632 0M68.3925 2.451H68.7717C69.5925 2.67234 70.008 3.09344 70.008 3.71969V4.1084C69.7925 4.95059 69.3819 5.37709 68.7717 5.37709H68.3925C67.5717 5.15574 67.1563 4.73464 67.1563 4.1084V3.71969C67.3717 2.87749 67.7824 2.451 68.3925 2.451ZM68.6768 6.53239C69.4661 6.53239 69.9296 7.03447 70.0555 8.04405V20.0831C69.9504 21.0926 69.4608 21.5947 68.5824 21.5947C67.7931 21.5947 67.3296 21.0926 67.2037 20.0831V8.04405C67.3088 7.03447 67.7984 6.53239 68.6768 6.53239ZM76.744 6.65659C76.0859 6.65659 75.36 6.9049 74.56 7.40157C73.2603 8.41115 72.6128 9.51249 72.6128 10.7164V11.4722C72.6128 12.4223 73.1024 13.4157 74.0864 14.4576C74.9072 15.0677 75.7333 15.424 76.5595 15.532C79.6539 15.5644 81.5851 15.5806 82.3531 15.5806C82.448 15.5806 82.5584 15.5968 82.6848 15.6292C83.5109 15.9153 83.9216 16.4282 83.9216 17.1624C83.9216 17.4701 83.8267 17.767 83.6373 18.0532C83.3424 18.5499 82.6795 18.7982 81.6427 18.7982H73.7547C72.992 19.0844 72.6128 19.5055 72.6128 20.0669V20.4826C72.9077 21.2276 73.3339 21.6055 73.8971 21.6055H82.7323C83.3269 21.6055 84.0059 21.3842 84.7739 20.9469C86.1365 19.9319 86.8155 18.8144 86.8155 17.5943V16.7521C86.8155 16.0719 86.5312 15.3053 85.9579 14.4631C84.8949 13.3078 83.8528 12.7355 82.8219 12.7355H77.7856C77.144 12.7355 76.7333 12.6923 76.5493 12.6005C75.8544 12.2604 75.5019 11.8177 75.5019 11.2832V10.9161C75.5019 10.8352 75.5333 10.6948 75.5968 10.4896C75.8336 9.80939 76.528 9.4639 77.6859 9.4639H85.3371C86.3211 9.33433 86.8101 8.88084 86.8101 8.10884C86.8101 7.25044 86.3211 6.76455 85.3371 6.65659H76.7387" fill="#100711"/>
<path d="M9.30909 14.777C11.3666 10.2637 12.5664 7.69391 12.919 7.06768C13.261 6.71136 13.6557 6.5332 14.1082 6.5332C14.8975 6.5332 15.3606 7.03529 15.4869 8.04481C15.4869 8.39571 14.9502 9.65902 13.8714 11.8455C12.6243 14.5772 11.6402 16.7205 10.9035 18.2861L9.31437 14.777H9.30909ZM7.65677 15.3493C5.90451 11.5486 4.86784 9.35671 4.55737 8.77364C4.05747 7.27823 3.42601 6.5332 2.65773 6.5332C1.67371 6.64658 1.18433 7.13246 1.18433 7.99623V8.23917C1.31062 8.70344 3.03661 12.4232 6.36232 19.4036C6.9148 20.8667 7.40947 21.5955 7.83571 21.5955H8.88285C9.02493 21.5955 9.21437 21.4822 9.45117 21.2554C9.55117 21.0773 9.70904 20.7749 9.91949 20.343L7.65677 15.3493Z" fill="#100711"/>
<path d="M2.52681 28.2756L3.31126 25.5155H3.78509L2.71634 28.94H2.33728L1.27905 25.5155H1.75288L2.53207 28.2756H2.52681ZM4.6959 28.9346H4.26419V25.5101H4.6959V28.9346ZM7.69154 28.9346H7.25986L5.88573 26.2988V28.9346H5.45405V25.5101H5.88573L7.26514 28.1568V25.5101H7.69154V28.9346ZM9.93437 28.0704C9.93437 27.8975 9.88701 27.7679 9.79746 27.6761C9.70797 27.5843 9.53949 27.4978 9.29736 27.4114C9.05517 27.325 8.8709 27.2332 8.7445 27.1414C8.61816 27.0495 8.51816 26.9361 8.45496 26.8173C8.39181 26.6985 8.36018 26.558 8.36018 26.4014C8.36018 26.1313 8.44968 25.9045 8.63394 25.7316C8.81298 25.5534 9.05517 25.467 9.34472 25.467C9.54477 25.467 9.72376 25.5101 9.88173 25.6019C10.0396 25.6938 10.1608 25.818 10.245 25.9747C10.3292 26.1367 10.3713 26.3095 10.3713 26.4986H9.93965C9.93965 26.2879 9.88701 26.1259 9.78696 26.0071C9.6869 25.8936 9.53949 25.8342 9.34472 25.8342C9.17096 25.8342 9.0341 25.8829 8.93933 25.9801C8.84456 26.0773 8.7972 26.2123 8.7972 26.3906C8.7972 26.5364 8.84984 26.6552 8.94984 26.7525C9.05517 26.8497 9.21309 26.9361 9.42893 27.0117C9.76589 27.1252 10.0081 27.2602 10.1555 27.4222C10.3029 27.5843 10.3713 27.8003 10.3713 28.0596C10.3713 28.3351 10.2818 28.5566 10.1028 28.724C9.92386 28.8914 9.6764 28.9725 9.36578 28.9725C9.16573 28.9725 8.98146 28.9292 8.81298 28.8428C8.6445 28.7564 8.51288 28.6322 8.41282 28.4755C8.3181 28.3189 8.26541 28.1352 8.26541 27.9354H8.69714C8.69714 28.146 8.75506 28.3134 8.87613 28.4269C8.99725 28.5457 9.15517 28.6051 9.3605 28.6051C9.55005 28.6051 9.69218 28.5565 9.78696 28.4593C9.88173 28.3621 9.92909 28.2325 9.92909 28.0596L9.93437 28.0704ZM11.9982 27.1197C11.9982 26.9847 12.0403 26.8713 12.1298 26.7849C12.2193 26.6985 12.3298 26.6552 12.4772 26.6552C12.6247 26.6552 12.7352 26.6985 12.8247 26.7849C12.9143 26.8713 12.9563 26.9847 12.9563 27.1306V27.217C12.9563 27.352 12.9143 27.4654 12.8247 27.5519C12.7405 27.6383 12.6194 27.6815 12.472 27.6815C12.3246 27.6815 12.2088 27.6383 12.1245 27.5519C12.0403 27.4654 11.9929 27.352 11.9929 27.217V27.1252L11.9982 27.1197ZM16.9208 27.8435C16.8997 28.2109 16.7996 28.4917 16.6101 28.6862C16.4206 28.8806 16.1574 28.9778 15.8151 28.9778C15.4729 28.9778 15.1992 28.8482 14.9938 28.5889C14.7938 28.3296 14.6885 27.9732 14.6885 27.5249V26.9037C14.6885 26.4608 14.7938 26.1043 14.9991 25.8504C15.2044 25.5912 15.4887 25.4615 15.852 25.4615C16.1837 25.4615 16.4417 25.5588 16.6207 25.7586C16.7996 25.9585 16.8997 26.2393 16.9155 26.6066H16.4785C16.4575 26.3257 16.3995 26.1313 16.3048 26.0071C16.2047 25.8882 16.0573 25.8288 15.852 25.8288C15.6203 25.8288 15.4361 25.9207 15.315 26.1043C15.1886 26.2879 15.1255 26.5526 15.1255 26.9091V27.5356C15.1255 27.8813 15.1834 28.146 15.2992 28.3351C15.415 28.5187 15.5888 28.6106 15.8099 28.6106C16.031 28.6106 16.1942 28.5566 16.2943 28.4431C16.3943 28.3296 16.4522 28.1298 16.4785 27.8435H16.9155H16.9208ZM19.748 28.9346H19.3162V27.352H17.9369V28.9346H17.5051V25.5101H17.9369V26.9793H19.3162V25.5101H19.748V28.9346ZM22.1329 28.038H20.9746L20.7062 28.9346H20.2639L21.3695 25.5101H21.738L22.8436 28.9346H22.4014L22.1329 28.038ZM21.0852 27.6707H22.0223L21.5538 26.1151L21.0852 27.6707ZM23.865 25.5101L24.76 28.3027L25.6551 25.5101H26.2131V28.9346H25.7814V27.6005L25.8235 26.2663L24.9285 28.9346H24.5968L23.7018 26.2772L23.7439 27.6059V28.94H23.3122V25.5155H23.8703L23.865 25.5101ZM27.3819 27.5951V28.9346H26.9502V25.5101H28.0452C28.3664 25.5101 28.6138 25.6074 28.7981 25.7964C28.9824 25.9855 29.0719 26.2393 29.0719 26.558C29.0719 26.8767 28.9876 27.1414 28.8139 27.3196C28.6402 27.4978 28.398 27.5897 28.0821 27.5951H27.3872H27.3819ZM27.3819 27.2278H28.0452C28.2348 27.2278 28.3822 27.1684 28.4875 27.055C28.5875 26.9415 28.6402 26.7741 28.6402 26.5634C28.6402 26.3528 28.5875 26.1907 28.4822 26.0665C28.3769 25.9422 28.2348 25.8829 28.0505 25.8829H27.3872V27.2278H27.3819ZM30.8988 28.0434H29.7405L29.472 28.94H29.0298L30.1354 25.5155H30.5039L31.6095 28.94H31.1673L30.8988 28.0434ZM29.8511 27.6761H30.7882L30.3196 26.1205L29.8511 27.6761ZM34.1998 28.5133L34.1261 28.6051C33.9103 28.859 33.5944 28.9832 33.1731 28.9832C32.8046 28.9832 32.5098 28.859 32.2992 28.6159C32.0886 28.3729 31.978 28.0218 31.978 27.5735V26.9037C31.978 26.423 32.0728 26.0665 32.2676 25.8234C32.4571 25.5857 32.7467 25.467 33.1311 25.467C33.4575 25.467 33.7154 25.5588 33.8997 25.737C34.084 25.9207 34.184 26.1745 34.2051 26.5148H33.7734C33.7576 26.3041 33.6944 26.1367 33.5944 26.0179C33.4943 25.8991 33.3416 25.8396 33.1363 25.8396C32.8889 25.8396 32.7098 25.9207 32.594 26.0827C32.4782 26.2448 32.4203 26.4986 32.4151 26.8551V27.5519C32.4151 27.8975 32.4835 28.1622 32.6151 28.3459C32.7467 28.5295 32.9362 28.6213 33.1837 28.6213C33.4153 28.6213 33.5944 28.5673 33.7154 28.4539L33.7786 28.3945V27.6059H33.1521V27.2386H34.2103V28.5187L34.1998 28.5133ZM37.1428 28.94H36.7111L35.337 26.3041V28.94H34.9053V25.5155H35.337L36.7163 28.1622V25.5155H37.1428V28.94ZM39.533 27.3574H38.3222V28.5728H39.7331V28.94H37.8904V25.5155H39.712V25.8829H38.3222V26.9847H39.533V27.352V27.3574ZM41.7811 28.0758C41.7811 27.903 41.7337 27.7733 41.6442 27.6815C41.5495 27.5897 41.3863 27.5033 41.1441 27.4169C40.9019 27.3304 40.7176 27.2386 40.5913 27.1468C40.4649 27.0495 40.3702 26.9415 40.3017 26.8227C40.2385 26.7038 40.2069 26.5634 40.2069 26.4068C40.2069 26.1367 40.2964 25.9098 40.4807 25.737C40.6597 25.5588 40.9019 25.4723 41.1914 25.4723C41.3915 25.4723 41.5705 25.5155 41.7284 25.6074C41.8864 25.6992 42.0075 25.8234 42.0917 25.9801C42.176 26.1421 42.218 26.315 42.218 26.504H41.7864C41.7864 26.2934 41.7337 26.1313 41.6337 26.0125C41.5337 25.8991 41.3863 25.8396 41.1914 25.8396C41.0177 25.8396 40.8808 25.8882 40.786 25.9855C40.6913 26.0827 40.6439 26.2177 40.6439 26.396C40.6439 26.5418 40.6966 26.6607 40.8018 26.7578C40.9072 26.8551 41.0651 26.9415 41.2809 27.0171C41.6179 27.1306 41.8601 27.2656 42.0075 27.4276C42.1549 27.5897 42.2233 27.8057 42.2233 28.065C42.2233 28.3405 42.1338 28.5619 41.9548 28.7294C41.7758 28.8968 41.5284 28.9778 41.2178 28.9778C41.0177 28.9778 40.8335 28.9346 40.665 28.8482C40.4965 28.7618 40.3649 28.6375 40.2648 28.4809C40.17 28.3243 40.1174 28.1406 40.1174 27.9408H40.5491C40.5491 28.1514 40.6071 28.3189 40.7281 28.4323C40.8493 28.5511 41.0072 28.6106 41.2125 28.6106C41.4021 28.6106 41.5442 28.5619 41.639 28.4647C41.7337 28.3675 41.7811 28.2378 41.7811 28.065V28.0758ZM43.8396 27.1252C43.8396 26.9901 43.8817 26.8767 43.9713 26.7903C44.0608 26.7038 44.1766 26.6607 44.3187 26.6607C44.4609 26.6607 44.5767 26.7038 44.6662 26.7903C44.7557 26.8767 44.8031 26.9901 44.8031 27.136V27.2224C44.8031 27.3574 44.761 27.4709 44.6715 27.5573C44.5872 27.6437 44.4662 27.6869 44.3187 27.6869C44.1713 27.6869 44.0555 27.6437 43.966 27.5573C43.8765 27.4709 43.8344 27.3574 43.8344 27.2224V27.1306L43.8396 27.1252ZM46.6142 28.94V25.5155H47.5934C47.9041 25.5155 48.141 25.5912 48.2989 25.7424C48.4569 25.8936 48.5358 26.1205 48.5358 26.4284C48.5358 26.5904 48.4937 26.7309 48.4147 26.8497C48.3358 26.9685 48.2252 27.0657 48.0883 27.136C48.2463 27.1846 48.3673 27.2818 48.4621 27.4276C48.5516 27.5735 48.599 27.7463 48.599 27.9515C48.599 28.2594 48.5147 28.5025 48.3463 28.6753C48.1778 28.8482 47.9356 28.94 47.625 28.94H46.6142ZM47.0459 26.9793H47.5987C47.7461 26.9793 47.8672 26.9307 47.9619 26.8281C48.0567 26.7255 48.0989 26.5958 48.0989 26.4284C48.0989 26.2393 48.0567 26.1043 47.9725 26.0179C47.8882 25.9315 47.7619 25.8882 47.5934 25.8882H47.0459V26.9793ZM47.0459 27.3412V28.5728H47.6355C47.7987 28.5728 47.9304 28.5187 48.0251 28.4107C48.1199 28.3027 48.1673 28.1514 48.1673 27.957C48.1673 27.5465 47.9936 27.3412 47.6461 27.3412H47.0459ZM49.6941 28.94H49.2624V25.5155H49.6941V28.94ZM52.0948 27.3574H50.8839V28.5728H52.3001V28.94H50.4575V25.5155H52.2791V25.8829H50.8892V26.9847H52.1001V27.352L52.0948 27.3574ZM51.6052 25.2617H51.2314L50.6259 24.5703H51.1525L51.6105 25.2617H51.6052ZM53.8847 27.5573H53.2794V28.94H52.8477V25.5155H53.8111C54.1482 25.5155 54.401 25.6019 54.5743 25.7802C54.7482 25.9531 54.8324 26.2123 54.8324 26.5472C54.8324 26.7578 54.785 26.9415 54.6906 27.0981C54.5956 27.2548 54.4639 27.3736 54.2954 27.4547L54.9588 28.9076V28.9346H54.4954L53.8847 27.5519V27.5573ZM53.2794 27.19H53.8004C53.9796 27.19 54.1268 27.1306 54.2324 27.0171C54.3375 26.8983 54.3956 26.7471 54.3956 26.5526C54.3956 26.1151 54.1956 25.8936 53.7951 25.8936H53.2794V27.1954V27.19ZM57.049 27.3628H55.8383V28.5781H57.2543V28.9454H55.4117V25.521H57.2335V25.8882H55.8431V26.9901H57.0543V27.3574L57.049 27.3628ZM59.297 28.0812C59.297 27.9084 59.2495 27.7788 59.1599 27.6869C59.0655 27.5951 58.9023 27.5087 58.6602 27.4222C58.418 27.3358 58.2335 27.244 58.1071 27.1522C57.9807 27.055 57.8863 26.9469 57.8175 26.8281C57.7546 26.7093 57.7231 26.5688 57.7231 26.4122C57.7231 26.1421 57.8122 25.9153 57.9967 25.7424C58.1759 25.5641 58.418 25.4777 58.7076 25.4777C58.9076 25.4777 59.0863 25.521 59.2442 25.6128C59.4026 25.7046 59.5236 25.8289 59.6079 25.9855C59.6922 26.1475 59.7338 26.3204 59.7338 26.5094H59.3023C59.3023 26.2988 59.2495 26.1367 59.1498 26.0179C59.0495 25.9044 58.9023 25.8451 58.7076 25.8451C58.5338 25.8451 58.3967 25.8936 58.3018 25.9909C58.2074 26.0881 58.1599 26.2231 58.1599 26.4014C58.1599 26.5472 58.2127 26.666 58.3178 26.7633C58.4228 26.8605 58.5812 26.9469 58.7967 27.0225C59.1338 27.1359 59.3759 27.271 59.5237 27.433C59.6708 27.5951 59.7391 27.8111 59.7391 28.0704C59.7391 28.3459 59.6501 28.5673 59.4709 28.7348C59.2916 28.9022 59.0442 28.9832 58.7338 28.9832C58.5338 28.9832 58.3492 28.94 58.1807 28.8536C58.0127 28.7672 57.881 28.643 57.7807 28.4863C57.6858 28.3297 57.6335 28.146 57.6335 27.9462H58.065C58.065 28.1568 58.1231 28.3243 58.2442 28.4377C58.3652 28.5566 58.5231 28.6159 58.7284 28.6159C58.9178 28.6159 59.0602 28.5673 59.1551 28.4701C59.2495 28.3729 59.297 28.2432 59.297 28.0704V28.0812ZM61.361 27.1306C61.361 26.9955 61.4031 26.8821 61.4927 26.7957C61.5818 26.7093 61.6927 26.666 61.8399 26.666C61.9871 26.666 62.098 26.7093 62.1876 26.7957C62.2767 26.8821 62.3188 26.9955 62.3188 27.1414V27.2278C62.3188 27.3628 62.2767 27.4763 62.1876 27.5627C62.1034 27.6491 61.9823 27.6923 61.8346 27.6923C61.6874 27.6923 61.5716 27.6491 61.4874 27.5627C61.4031 27.4763 61.3556 27.3628 61.3556 27.2278V27.136L61.361 27.1306ZM65.6357 28.0812C65.6357 27.9084 65.5887 27.7788 65.4991 27.6869C65.4042 27.5951 65.241 27.5087 64.9988 27.4222C64.7567 27.3358 64.5722 27.244 64.4458 27.1522C64.3199 27.055 64.225 26.9469 64.1567 26.8281C64.0932 26.7093 64.0618 26.5688 64.0618 26.4122C64.0618 26.1421 64.1514 25.9153 64.3354 25.7424C64.5146 25.5641 64.7567 25.4777 65.0463 25.4777C65.2463 25.4777 65.4255 25.521 65.5834 25.6128C65.7412 25.7046 65.8623 25.8289 65.9466 25.9855C66.0308 26.1475 66.073 26.3204 66.073 26.5094H65.641C65.641 26.2988 65.5887 26.1367 65.4884 26.0179C65.3882 25.9044 65.241 25.8451 65.0463 25.8451C64.8724 25.8451 64.7354 25.8936 64.641 25.9909C64.5461 26.0881 64.4986 26.2231 64.4986 26.4014C64.4986 26.5472 64.5514 26.666 64.6564 26.7633C64.7621 26.8605 64.9199 26.9469 65.1359 27.0225C65.4725 27.1359 65.7146 27.271 65.8623 27.433C66.0095 27.5951 66.0783 27.8111 66.0783 28.0704C66.0783 28.3459 65.9887 28.5673 65.8095 28.7348C65.6308 28.9022 65.3834 28.9832 65.0724 28.9832C64.8724 28.9832 64.6884 28.94 64.5199 28.8536C64.3514 28.7672 64.2196 28.643 64.1194 28.4863C64.025 28.3297 63.9722 28.146 63.9722 27.9462H64.4036C64.4036 28.1568 64.4618 28.3243 64.5828 28.4377C64.7039 28.5566 64.8618 28.6159 65.0671 28.6159C65.257 28.6159 65.3988 28.5673 65.4938 28.4701C65.5887 28.3729 65.6357 28.2432 65.6357 28.0704V28.0812ZM67.0676 27.6059V28.9454H66.6362V25.521H67.7311C68.0522 25.521 68.2997 25.6182 68.4842 25.8072C68.6682 25.9963 68.7578 26.2501 68.7578 26.5688C68.7578 26.8875 68.6735 27.1522 68.5002 27.3304C68.3263 27.5087 68.0842 27.6005 67.7679 27.6059H67.073H67.0676ZM67.0676 27.2386H67.7311C67.921 27.2386 68.0682 27.1792 68.1732 27.0657C68.2735 26.9523 68.3263 26.7849 68.3263 26.5742C68.3263 26.3636 68.2735 26.2015 68.1684 26.0773C68.0629 25.9531 67.921 25.8936 67.7364 25.8936H67.073V27.2386H67.0676ZM69.7583 28.9454H69.3263V25.521H69.7583V28.9454ZM71.5482 27.5627H70.9428V28.9454H70.5108V25.521H71.4746C71.8116 25.521 72.0644 25.6074 72.2378 25.7856C72.4116 25.9585 72.4959 26.2177 72.4959 26.5526C72.4959 26.7633 72.4484 26.9469 72.3535 27.1035C72.2591 27.2602 72.1274 27.379 71.9588 27.46L72.6223 28.913V28.94H72.1589L71.5482 27.5573V27.5627ZM70.9428 27.1954H71.4639C71.6431 27.1954 71.7903 27.1359 71.8959 27.0225C72.001 26.9037 72.0591 26.7525 72.0591 26.558C72.0591 26.1205 71.8591 25.8991 71.4586 25.8991H70.9428V27.2008V27.1954ZM73.5173 28.9508H73.0858V25.5263H73.5173V28.9508ZM76.2127 25.8991H75.3124V28.9508H74.881V25.8991H73.9807V25.5317H76.2127V25.8991ZM78.7663 25.5317V27.9624C78.7663 28.2865 78.6714 28.5403 78.482 28.724C78.2975 28.9076 78.0399 28.9994 77.7082 28.9994C77.3764 28.9994 77.1077 28.9076 76.929 28.7294C76.7498 28.5511 76.6602 28.2918 76.6548 27.9624V25.5317H77.0815V27.9462C77.0815 28.1784 77.129 28.3459 77.2287 28.4593C77.329 28.5728 77.4868 28.6321 77.7028 28.6321C77.9188 28.6321 78.082 28.5728 78.1818 28.4593C78.2821 28.3459 78.3295 28.173 78.3295 27.9462V25.5317H78.761H78.7663ZM81.0724 27.3736H79.8613V28.5889H81.2778V28.9562H79.4351V25.5317H81.2564V25.8991H79.8666V27.001H81.0772V27.3682L81.0724 27.3736ZM83.8676 25.5317V27.9624C83.8676 28.2865 83.7732 28.5403 83.5834 28.724C83.3994 28.9076 83.1413 28.9994 82.8095 28.9994C82.4778 28.9994 82.2095 28.9076 82.0303 28.7294C81.8517 28.5511 81.762 28.2918 81.7567 27.9624V25.5317H82.1834V27.9462C82.1834 28.1784 82.2303 28.3459 82.3306 28.4593C82.4303 28.5728 82.5887 28.6321 82.8042 28.6321C83.0202 28.6321 83.1834 28.5728 83.2836 28.4593C83.3834 28.3459 83.4308 28.173 83.4308 27.9462V25.5317H83.8628H83.8676ZM85.4948 26.8443L86.1423 25.5317H86.6479L85.7524 27.2278L86.6634 28.9508H86.153L85.4948 27.6167L84.8314 28.9508H84.3204L85.2367 27.2278L84.3418 25.5317H84.8468L85.4948 26.8443Z" fill="#100711"/>
</g>
<defs>
<clipPath id="clip0_7225_45439">
<rect width="88" height="29" fill="white"/>
</clipPath>
</defs>
</svg>
