<?xml version="1.0" encoding="UTF-8"?>
<svg xmlns="http://www.w3.org/2000/svg" version="1.1" viewBox="0 0 332 264.4">
  <defs>
    <style>
      .cls-1 {
        fill: #fff;
        opacity: .3;
      }
    </style>
  </defs>
  <!-- Generator: Adobe Illustrator 28.6.0, SVG Export Plug-In . SVG Version: 1.2.0 Build 709)  -->
  <g>
    <g id="Calque_1">
      <path id="_03_fleche" class="cls-1" d="M328.3,83.4l-11.5-11.5-43.6-43.6-20.5,20.5,29.2,29.2c-19.8-.6-49.6-.3-80.2,5,0,0,0,0-.1,0-.8-5-2-10.6-3.5-16.8,0,0,0,0,0-.1-.4-1.5-.7-3-1.1-4.6-2.4-9.3-5.8-18.3-10.1-26.8-.4-.8-.8-1.6-1.2-2.3-.6-1.1-1-1.8-1.3-2.3,0-.1-.2-.3-.2-.4,0-.1-.1-.2-.1-.2-4.1-6.7-9.2-12.6-15.1-17.7-7.5-6.4-17.1-10.2-28.6-11.3-11.6-1.2-23.3.4-34.1,4.8-10.5,4.4-20.1,10.7-28.4,18.6-8.6,8.3-16.3,17.6-22.8,27.6-6.7,10.2-12.6,20.9-17.8,31.9-4.8,10.2-9.1,20.6-12.9,31.2-7.8,22.2-13.7,44.9-17.8,68C2.2,205.3,0,228.4,0,251.5v1.2h38.6v-1.2c0-15.3,1.3-30.5,3.5-45.6,2.4-16.5,5.7-32.9,9.8-49,4.1-16,9-31.8,14.9-47.2,5.2-13.8,11.7-27.2,19.2-39.9,7-11.5,14.5-20.7,22.2-27.3,3.4-2.9,7.2-5.3,11.3-7.1,3.7-1.5,7.6-2.3,11.6-2.4.3,0,.5,0,.8,0,5.6.1,10.8,2.6,14.3,6.9,4.2,5,7.5,10.7,9.6,16.8,2.4,6.5,4.3,13.2,5.7,20,1.2,6.1,2.1,11.2,2.6,15-3.1,1.1-6.2,2.3-9.2,3.6-.3.1-.5.2-.8.4-3,1.3-5.9,2.7-8.9,4.2-16.2,7.7-30.6,18.7-42.2,32.4-1.9,2.2-3.6,4.4-5.3,6.6-8.8,11.2-15.6,23.8-20.2,37.3-3.2,9.9-4.5,20.3-4,30.7.4,9.8,2.8,19.5,7,28.4,4.1,8.5,10.4,15.8,18.4,20.9,8,5.2,17.9,8,29.4,8.2.6,0,1.1,0,1.7,0,11,0,20.6-2.1,28.5-6.3,8.1-4.3,15.2-10.4,20.7-17.7,5.4-7.3,9.8-15.3,13-23.9,3.1-8.3,5.5-16.8,7.2-25.4,1.6-8.3,2.7-16,3.4-22.7.7-6.9,1.1-11.8,1.4-15,.2-1.8.4-3.6.5-5.3.7-11.5.8-22.9.3-34.4,8.2-1.6,16.6-2.8,24.9-3.5,16.3-1.4,32.7-1.5,49-.4l-26.2,26.2,20.5,20.5,43.6-43.6,11.5-11.5c5-5,5-13.1,0-18,0,0,0,0,0,0h0ZM169.5,125.9c0,4.7-.3,12.3-1,23.3-.7,11.3-2.1,22.6-4.2,33.7-1.8,8.7-4.2,17.2-7.2,25.6-2.9,8.2-6.7,14.7-11.3,19.3-3.7,3.9-8.9,6.1-14.3,6.1-1.1,0-2.2,0-3.3-.2-5-.5-9.5-3.2-12.3-7.4-2.8-4.2-4.6-9-5.3-14-.8-4.7-.9-9.6-.4-14.4,1.9-14.8,7.7-29,17.4-42,1-1.3,2.1-2.7,3.1-4,0,0,.1-.2.2-.2.5-.6.9-1.1,1.5-1.7,9.1-10.3,21-18.8,35.3-25.3l1.7-.8v1.8Z"/>
    </g>
  </g>
</svg>